<svg width="20" height="16" viewBox="0 0 20 16" fill="none" xmlns="http://www.w3.org/2000/svg">
<path d="M12.6982 1.32382H7.28583V11.0532H12.6982V1.32382Z" fill="#FF5A00"/>
<path d="M7.64612 6.18852C7.64612 4.2118 8.57486 2.45738 10 1.32382C8.95116 0.498687 7.6281 0 6.18495 0C2.76621 0 0 2.76781 0 6.18852C0 9.60923 2.76621 12.377 6.18495 12.377C7.6281 12.377 8.95116 11.8784 10 11.0532C8.57286 9.93568 7.64612 8.16524 7.64612 6.18852Z" fill="#EB001B"/>
<path d="M20 6.18852C20 9.60923 17.2338 12.377 13.8151 12.377C12.3719 12.377 11.0488 11.8784 10 11.0532C11.4432 9.91766 12.3539 8.16524 12.3539 6.18852C12.3539 4.2118 11.4251 2.45738 10 1.32382C11.0468 0.498687 12.3699 0 13.813 0C17.2338 0 20 2.78584 20 6.18852Z" fill="#F79E1B"/>
</svg>
