<svg width="29" height="28" viewBox="0 0 29 28" fill="none" xmlns="http://www.w3.org/2000/svg">
<path d="M9.14072 3.5H6.89072C5.23386 3.5 3.89072 4.84315 3.89072 6.5V8.75M19.6407 3.5H21.8907C23.5476 3.5 24.8907 4.84315 24.8907 6.5V8.75M3.89072 19.25V21.5C3.89072 23.1569 5.23386 24.5 6.89072 24.5H9.14072M24.8907 19.25V21.5C24.8907 23.1569 23.5476 24.5 21.8907 24.5H19.6407" stroke="white" stroke-width="2" stroke-linecap="round"/>
<path fill-rule="evenodd" clip-rule="evenodd" d="M9.14062 7.75H8.14062V8.75V12.25V13.25H9.14062H12.6406H13.6406V12.25V8.75V7.75H12.6406H9.14062ZM10.1406 11.25V9.75H11.6406V11.25H10.1406ZM19.2376 16.0469H18.3044V15.1135H15.5043V19.7802H16.4377V16.9802H17.3709V17.9136H20.171V15.1135H19.2376V16.0469ZM17.3707 18.8469H18.3043V19.7802H17.3707V18.8469ZM20.1709 18.8469H19.2374V19.7802H20.1709V18.8469ZM8.14062 14.75H9.14062H12.6406H13.6406V15.75V19.25V20.25H12.6406H9.14062H8.14062V19.25V15.75V14.75ZM10.1406 16.75V18.25H11.6406V16.75H10.1406ZM16.1406 7.75H15.1406V8.75V12.25V13.25H16.1406H19.6406H20.6406V12.25V8.75V7.75H19.6406H16.1406ZM17.1406 11.25V9.75H18.6406V11.25H17.1406Z" fill="white"/>
</svg>
