<svg width="24" height="8" viewBox="0 0 24 8" fill="none" xmlns="http://www.w3.org/2000/svg">
<path d="M8.7998 7.10259L10.0189 0.471008H11.9236L10.7427 7.10259H8.7998Z" fill="white"/>
<path d="M17.6382 0.544737C17.2572 0.397369 16.6477 0.25 15.8858 0.25C13.981 0.25 12.6096 1.17105 12.6096 2.49737C12.6096 3.49211 13.562 4.00789 14.3239 4.33947C15.0858 4.67105 15.3143 4.8921 15.3143 5.18684C15.3143 5.62895 14.7048 5.85 14.1715 5.85C13.4096 5.85 12.9905 5.73947 12.3429 5.48158L12.0762 5.37105L11.8096 6.88158C12.2667 7.06579 13.1048 7.25 13.981 7.25C16.0001 7.25 17.3334 6.32895 17.3334 4.92895C17.3334 4.15526 16.8382 3.56579 15.6953 3.08684C15.0096 2.75526 14.5905 2.57105 14.5905 2.23947C14.5905 1.94474 14.9334 1.65 15.6953 1.65C16.3429 1.65 16.8001 1.76053 17.1429 1.90789L17.3334 1.98158L17.6382 0.544737Z" fill="white"/>
<path d="M20.914 0.471008C20.4569 0.471008 20.114 0.50785 19.9236 0.949955L17.0664 7.10259H19.1236L19.5045 5.99732H21.9426L22.1712 7.10259H23.9998L22.3998 0.471008H20.914ZM20.0378 4.89206C20.1521 4.56048 20.7997 2.93943 20.7997 2.93943C20.7997 2.93943 20.9521 2.53417 21.0664 2.27627L21.1807 2.90259C21.1807 2.90259 21.5617 4.56048 21.6378 4.9289H20.0378V4.89206Z" fill="white"/>
<path d="M5.29563 5.1131L5.10515 4.15521C4.76229 3.04995 3.65753 1.83416 2.43848 1.24468L4.15277 7.13942H6.20992L9.29564 0.507843H7.23849L5.29563 5.1131Z" fill="white"/>
<path d="M0 0.471008L0.342858 0.544693C2.78096 1.09732 4.45715 2.49732 5.10478 4.15522L4.41906 1.02364C4.30477 0.581535 3.96192 0.471008 3.54287 0.471008H0Z" fill="#FFCA41"/>
</svg>
